# xmcd
# Track frame offsets:
# 330
# 13625
# 27660
# 42998
# 55859
# 68286
# 85601
# 104127
# 120707
# 133124
# 144403
# 158403
#
# Disc length: 2252 seconds
# Revision: 0
# Processed by: cddbd v1.5PL3 Copyright (c) Steve Scherf et al.
# Submitted via: VisiTrax 2.9.9.202 - For more info visit www.synapsa.com
#
DISCID=9c08c80c
DTITLE=Steve Wariner - Guitar Christmas
DYEAR=2003
DGENRE=
TTITLE0=It Came Upon A Midnight Clear
TTITLE1=God Rest Ye Merry Gentlemen
TTITLE2=White Christmas
TTITLE3=Away in A Manger/o Little Town of Bthlehem/We Wish You A Merry Christm
TTITLE3=as
TTITLE4=Santa Claus Is Comming to Town
TTITLE5=Silent Night
TTITLE6=The First Noel/Hark!The Angels Sing
TTITLE7=Deck The Halls
TTITLE8=The Christmas Song
TTITLE9=I Saw Three Ships
TTITLE10=Winter Wonderland
TTITLE11=Jingel Bells
EXTD=
EXTT0=
EXTT1=
EXTT2=
EXTT3=
EXTT4=
EXTT5=
EXTT6=
EXTT7=
EXTT8=
EXTT9=
EXTT10=
EXTT11=
PLAYORDER=
